<?xml version="1.0" encoding="UTF-8" standalone="no"?>
<!-- Created with Inkscape (http://www.inkscape.org/) -->

<svg
   width="40"
   height="40"
   viewBox="0 0 10.310533 10.310533"
   version="1.1"
   id="svg5696"
   inkscape:version="1.2.2 (732a01da63, 2022-12-09)"
   sodipodi:docname="black_king_vulnerable.svg"
   xmlns:inkscape="http://www.inkscape.org/namespaces/inkscape"
   xmlns:sodipodi="http://sodipodi.sourceforge.net/DTD/sodipodi-0.dtd"
   xmlns="http://www.w3.org/2000/svg"
   xmlns:svg="http://www.w3.org/2000/svg">
  <sodipodi:namedview
     id="namedview5698"
     pagecolor="#ffffff"
     bordercolor="#000000"
     borderopacity="0.25"
     inkscape:showpageshadow="2"
     inkscape:pageopacity="0.0"
     inkscape:pagecheckerboard="0"
     inkscape:deskcolor="#d1d1d1"
     inkscape:document-units="mm"
     showgrid="false"
     inkscape:zoom="17.91722"
     inkscape:cx="11.804287"
     inkscape:cy="20.008684"
     inkscape:window-width="1920"
     inkscape:window-height="991"
     inkscape:window-x="-9"
     inkscape:window-y="-9"
     inkscape:window-maximized="1"
     inkscape:current-layer="g1241" />
  <defs
     id="defs5693" />
  <g
     inkscape:label="Layer 1"
     inkscape:groupmode="layer"
     id="layer1">
    <g
       style="fill:none;fill-opacity:1;fill-rule:evenodd;stroke:#000000;stroke-width:1.5;stroke-linecap:round;stroke-linejoin:round;stroke-miterlimit:4;stroke-dasharray:none;stroke-opacity:1"
       id="g1241"
       transform="matrix(0.25776332,0,0,0.25776332,-0.63631285,-0.72495943)">
      <g
         id="g816"
         transform="translate(-1.4259295e-6,-44.999999)">
        <g
           id="g782"
           style="fill:none;fill-opacity:1;fill-rule:evenodd;stroke:#000000;stroke-width:1.5;stroke-linecap:round;stroke-linejoin:round;stroke-miterlimit:4;stroke-dasharray:none;stroke-opacity:1"
           transform="translate(-101.19553,22.778149)">
          <path
             d="m 123.69637,33.851851 c 0,-1.876667 0,-3.753333 0,-5.63"
             style="fill:#000000;fill-opacity:0;fill-rule:evenodd;stroke:#ff0000;stroke-width:3;stroke-linecap:round;stroke-linejoin:miter;stroke-miterlimit:4;stroke-dasharray:none;stroke-opacity:1"
             id="path260-2-7" />
          <path
             d="m 123.69637,47.221851 c 1.54573,-2.848397 3.21423,-5.870014 3.30176,-9.1875 -0.12136,-1.932401 -1.84578,-4.294301 -4.00488,-3.705078 -2.10741,0.823416 -3.06384,3.414262 -2.41896,5.510818 0.59168,2.617418 1.80523,5.062102 3.12208,7.38176 z"
             style="fill:#000000;fill-opacity:0;fill-rule:evenodd;stroke:#ff0000;stroke-width:3;stroke-linecap:butt;stroke-linejoin:miter;stroke-miterlimit:4;stroke-dasharray:none;stroke-opacity:1"
             id="path262-9-7" />
          <path
             d="m 112.69637,59.221851 c 4.70804,2.805454 10.56038,3.142356 15.83335,2.048218 1.75416,-0.495367 3.96409,-0.966859 5.16665,-2.254386 0,-2.26461 0,-4.529221 0,-6.793832 2.85293,-1.604218 5.92589,-3.880732 6.5603,-7.302979 0.53714,-3.7204 -3.19379,-6.838941 -6.72143,-6.76538 -4.51459,-0.0054 -8.69468,3.489887 -9.83887,7.774527 0,1.097944 0,2.195888 0,3.293832 0,-1.166667 0,-2.333333 0,-3.5 -1.97012,-4.196932 -6.27254,-7.813206 -11.10979,-7.538544 -4.20744,0.212826 -7.00993,5.577034 -4.74448,9.139565 1.12508,1.914998 2.92827,3.345362 4.85427,4.398979 0,2.5 0,5 0,7.5 z"
             style="fill:#000000;fill-opacity:0;fill-rule:evenodd;stroke:#ff0000;stroke-width:3;stroke-linecap:round;stroke-linejoin:round;stroke-miterlimit:4;stroke-dasharray:none;stroke-opacity:1"
             id="path264-6-1" />
          <path
             d="m 121.19637,30.221851 c 1.66667,0 3.33333,0 5,0"
             style="fill:#000000;fill-opacity:0;fill-rule:evenodd;stroke:#ff0000;stroke-width:3;stroke-linecap:round;stroke-linejoin:miter;stroke-miterlimit:4;stroke-dasharray:none;stroke-opacity:1"
             id="path266-2-2" />
        </g>
        <g
           style="fill:none;fill-opacity:1;fill-rule:evenodd;stroke:#000000;stroke-width:1.5;stroke-linecap:round;stroke-linejoin:round;stroke-miterlimit:4;stroke-dasharray:none;stroke-opacity:1"
           transform="translate(0,45)"
           id="g92">
          <path
             d="M 22.5,11.63 V 6"
             style="fill:none;stroke:#000000;stroke-linejoin:miter"
             id="path80" />
          <path
             d="m 22.5,25 c 0,0 4.5,-7.5 3,-10.5 0,0 -1,-2.5 -3,-2.5 -2,0 -3,2.5 -3,2.5 -1.5,3 3,10.5 3,10.5"
             style="fill:#000000;fill-opacity:1;stroke-linecap:butt;stroke-linejoin:miter"
             id="path82" />
          <path
             d="m 11.5,37 c 5.5,3.5 15.5,3.5 21,0 v -7 c 0,0 9,-4.5 6,-10.5 -4,-6.5 -13.5,-3.5 -16,4 V 27 23.5 C 19,16 9.5,13 6.5,19.5 c -3,6 5,10 5,10 z"
             style="fill:#000000;stroke:#000000"
             id="path84" />
          <path
             d="m 20,8 h 5"
             style="fill:none;stroke:#000000;stroke-linejoin:miter"
             id="path86" />
          <path
             d="m 32,29.5 c 0,0 8.5,-4 6.03,-9.65 C 34.15,14 25,18 22.5,24.5 l 0.01,2.1 -0.01,-2.1 C 20,18 9.906,14 6.997,19.85 c -2.497,5.65 4.853,9 4.853,9"
             style="fill:none;stroke:#ffffff"
             id="path88" />
          <path
             d="m 11.5,30 c 5.5,-3 15.5,-3 21,0 m -21,3.5 c 5.5,-3 15.5,-3 21,0 m -21,3.5 c 5.5,-3 15.5,-3 21,0"
             style="fill:none;stroke:#ffffff"
             id="path90" />
        </g>
      </g>
    </g>
  </g>
</svg>
