<?xml version="1.0" encoding="UTF-8" standalone="no"?>
<!-- Created with Inkscape (http://www.inkscape.org/) -->

<svg
   width="40"
   height="40"
   viewBox="0 0 10.310533 10.310533"
   version="1.1"
   id="svg5696"
   inkscape:version="1.2.2 (732a01da63, 2022-12-09)"
   sodipodi:docname="white_king_vulnerable.svg"
   xmlns:inkscape="http://www.inkscape.org/namespaces/inkscape"
   xmlns:sodipodi="http://sodipodi.sourceforge.net/DTD/sodipodi-0.dtd"
   xmlns="http://www.w3.org/2000/svg"
   xmlns:svg="http://www.w3.org/2000/svg">
  <sodipodi:namedview
     id="namedview5698"
     pagecolor="#ffffff"
     bordercolor="#000000"
     borderopacity="0.25"
     inkscape:showpageshadow="2"
     inkscape:pageopacity="0.0"
     inkscape:pagecheckerboard="0"
     inkscape:deskcolor="#d1d1d1"
     inkscape:document-units="mm"
     showgrid="false"
     inkscape:zoom="17.91722"
     inkscape:cx="18.501754"
     inkscape:cy="20.008684"
     inkscape:window-width="1920"
     inkscape:window-height="991"
     inkscape:window-x="-9"
     inkscape:window-y="-9"
     inkscape:window-maximized="1"
     inkscape:current-layer="layer1" />
  <defs
     id="defs5693" />
  <g
     inkscape:label="Layer 1"
     inkscape:groupmode="layer"
     id="layer1">
    <g
       style="fill:none;fill-opacity:1;fill-rule:evenodd;stroke:#000000;stroke-width:1.5;stroke-linecap:round;stroke-linejoin:round;stroke-miterlimit:4;stroke-dasharray:none;stroke-opacity:1"
       id="g1241"
       transform="matrix(0.25776332,0,0,0.25776332,-0.63631266,-0.72495924)">
      <path
         d="m 22.5,11.63 c 0,-1.8766667 0,-3.7533333 0,-5.63"
         style="fill:none;stroke:#ff0000;stroke-width:3;stroke-linejoin:miter;stroke-dasharray:none;stroke-opacity:1"
         id="path1227" />
      <path
         d="m 20,8 c 1.666667,0 3.333333,0 5,0"
         style="fill:none;stroke:#ff0000;stroke-width:3;stroke-linejoin:miter;stroke-dasharray:none;stroke-opacity:1"
         id="path1229" />
      <path
         d="m 22.5,25 c 1.545731,-2.848397 3.214225,-5.870014 3.301758,-9.1875 C 25.680401,13.880099 23.955976,11.518199 21.796875,12.107422 19.68947,12.930838 18.733036,15.521684 19.37792,17.61824 19.969602,20.235658 21.183152,22.680342 22.5,25 Z"
         style="fill:#ffffff;stroke:#ff0000;stroke-width:3;stroke-linecap:butt;stroke-linejoin:miter;stroke-dasharray:none;stroke-opacity:1"
         id="path1231" />
      <path
         d="m 11.5,37 c 4.708036,2.805454 10.560382,3.142356 15.833347,2.048218 1.754163,-0.495367 3.964091,-0.966859 5.166653,-2.254386 0,-2.26461 0,-4.529221 0,-6.793832 2.85293,-1.604218 5.925892,-3.880732 6.560303,-7.302979 0.537134,-3.7204 -3.193789,-6.838941 -6.721436,-6.76538 -4.514584,-0.0054 -8.694674,3.489887 -9.838867,7.774527 0,1.097944 0,2.195888 0,3.293832 0,-1.166667 0,-2.333333 0,-3.5 C 20.529883,19.303068 16.227464,15.686794 11.390213,15.961456 7.1827679,16.174282 4.3802849,21.53849 6.6457329,25.101021 7.7708063,27.016019 9.5739955,28.446383 11.5,29.5 c 0,2.5 0,5 0,7.5 z"
         style="fill:#ffffff;stroke:#ff0000;stroke-width:3;stroke-dasharray:none;stroke-opacity:1"
         id="path1233" />
      <path
         d="M 11.5,30 C 16.346947,27.553595 22.062781,27.327381 27.333347,28.244385 29.121874,28.595024 30.891949,29.129055 32.5,30"
         style="fill:none;stroke:#ff0000;stroke-width:3;stroke-dasharray:none;stroke-opacity:1"
         id="path1235" />
      <path
         d="M 11.5,33.5 C 16.346947,31.053595 22.062781,30.827381 27.333347,31.744385 29.121874,32.095024 30.891949,32.629055 32.5,33.5"
         style="fill:none;stroke:#ff0000;stroke-width:3;stroke-dasharray:none;stroke-opacity:1"
         id="path1237" />
      <path
         d="M 11.5,37 C 16.346947,34.553595 22.062781,34.327381 27.333347,35.244385 29.121874,35.595024 30.891949,36.129055 32.5,37"
         style="fill:none;stroke:#ff0000;stroke-width:3;stroke-dasharray:none;stroke-opacity:1"
         id="path1239" />
    </g>
    <g
       id="g379"
       style="fill:none;fill-opacity:1;fill-rule:evenodd;stroke:#000000;stroke-width:1.5;stroke-linecap:round;stroke-linejoin:round;stroke-miterlimit:4;stroke-dasharray:none;stroke-opacity:1"
       transform="matrix(0.25776332,0,0,0.25776332,-0.58100596,-0.72719792)">
      <path
         d="M 22.285436,11.638685 V 6.0086851"
         style="fill:none;fill-opacity:1;fill-rule:evenodd;stroke:#000000;stroke-width:1.5;stroke-linecap:round;stroke-linejoin:miter;stroke-miterlimit:4;stroke-dasharray:none;stroke-opacity:1"
         id="path1227-6" />
      <path
         d="m 19.785436,8.0086851 h 5"
         style="fill:none;fill-opacity:1;fill-rule:evenodd;stroke:#000000;stroke-width:1.5;stroke-linecap:round;stroke-linejoin:miter;stroke-miterlimit:4;stroke-dasharray:none;stroke-opacity:1"
         id="path1229-9" />
      <path
         d="m 22.285436,25.008685 c 0,0 4.5,-7.5 3,-10.5 0,0 -1,-2.5 -3,-2.5 -2,0 -3,2.5 -3,2.5 -1.5,3 3,10.5 3,10.5"
         style="fill:#ffffff;fill-opacity:1;fill-rule:evenodd;stroke:#000000;stroke-width:1.5;stroke-linecap:butt;stroke-linejoin:miter;stroke-miterlimit:4;stroke-dasharray:none;stroke-opacity:1"
         id="path1231-7" />
      <path
         d="m 11.285436,37.008685 c 5.5,3.5 15.5,3.5 21,0 v -7 c 0,0 9,-4.5 6,-10.5 -4,-6.5 -13.5,-3.5 -16,4 v 3.5 -3.5 c -3.5,-7.5 -12.9999998,-10.5 -15.9999998,-4 -3,6 4.9999998,10 4.9999998,10 z"
         style="fill:#ffffff;fill-opacity:1;fill-rule:evenodd;stroke:#000000;stroke-width:1.5;stroke-linecap:round;stroke-linejoin:round;stroke-miterlimit:4;stroke-dasharray:none;stroke-opacity:1"
         id="path1233-7" />
      <path
         d="m 11.285436,30.008685 c 5.5,-3 15.5,-3 21,0"
         style="fill:none;fill-opacity:1;fill-rule:evenodd;stroke:#000000;stroke-width:1.5;stroke-linecap:round;stroke-linejoin:round;stroke-miterlimit:4;stroke-dasharray:none;stroke-opacity:1"
         id="path1235-9" />
      <path
         d="m 11.285436,33.508685 c 5.5,-3 15.5,-3 21,0"
         style="fill:none;fill-opacity:1;fill-rule:evenodd;stroke:#000000;stroke-width:1.5;stroke-linecap:round;stroke-linejoin:round;stroke-miterlimit:4;stroke-dasharray:none;stroke-opacity:1"
         id="path1237-5" />
      <path
         d="m 11.285436,37.008685 c 5.5,-3 15.5,-3 21,0"
         style="fill:none;fill-opacity:1;fill-rule:evenodd;stroke:#000000;stroke-width:1.5;stroke-linecap:round;stroke-linejoin:round;stroke-miterlimit:4;stroke-dasharray:none;stroke-opacity:1"
         id="path1239-2" />
    </g>
  </g>
</svg>
