<?xml version="1.0" encoding="UTF-8" standalone="no"?>
<!-- Created with Inkscape (http://www.inkscape.org/) -->

<svg
   width="40"
   height="40"
   viewBox="0 0 10.310533 10.310533"
   version="1.1"
   id="svg5696"
   inkscape:version="1.2.2 (732a01da63, 2022-12-09)"
   sodipodi:docname="white_king.svg"
   xmlns:inkscape="http://www.inkscape.org/namespaces/inkscape"
   xmlns:sodipodi="http://sodipodi.sourceforge.net/DTD/sodipodi-0.dtd"
   xmlns="http://www.w3.org/2000/svg"
   xmlns:svg="http://www.w3.org/2000/svg">
  <sodipodi:namedview
     id="namedview5698"
     pagecolor="#ffffff"
     bordercolor="#000000"
     borderopacity="0.25"
     inkscape:showpageshadow="2"
     inkscape:pageopacity="0.0"
     inkscape:pagecheckerboard="0"
     inkscape:deskcolor="#d1d1d1"
     inkscape:document-units="mm"
     showgrid="false"
     inkscape:zoom="17.91722"
     inkscape:cx="19.729623"
     inkscape:cy="20.008684"
     inkscape:window-width="1920"
     inkscape:window-height="991"
     inkscape:window-x="-9"
     inkscape:window-y="-9"
     inkscape:window-maximized="1"
     inkscape:current-layer="g1241" />
  <defs
     id="defs5693" />
  <g
     inkscape:label="Layer 1"
     inkscape:groupmode="layer"
     id="layer1">
    <g
       style="fill:none;fill-opacity:1;fill-rule:evenodd;stroke:#000000;stroke-width:1.5;stroke-linecap:round;stroke-linejoin:round;stroke-miterlimit:4;stroke-dasharray:none;stroke-opacity:1"
       id="g1241"
       transform="matrix(0.25776332,0,0,0.25776332,-0.63631285,-0.72495943)">
      <path
         d="M 22.5,11.63 V 6"
         style="fill:none;stroke:#000000;stroke-linejoin:miter"
         id="path1227" />
      <path
         d="m 20,8 h 5"
         style="fill:none;stroke:#000000;stroke-linejoin:miter"
         id="path1229" />
      <path
         d="m 22.5,25 c 0,0 4.5,-7.5 3,-10.5 0,0 -1,-2.5 -3,-2.5 -2,0 -3,2.5 -3,2.5 -1.5,3 3,10.5 3,10.5"
         style="fill:#ffffff;stroke:#000000;stroke-linecap:butt;stroke-linejoin:miter"
         id="path1231" />
      <path
         d="m 11.5,37 c 5.5,3.5 15.5,3.5 21,0 v -7 c 0,0 9,-4.5 6,-10.5 -4,-6.5 -13.5,-3.5 -16,4 V 27 23.5 C 19,16 9.5,13 6.5,19.5 c -3,6 5,10 5,10 z"
         style="fill:#ffffff;stroke:#000000"
         id="path1233" />
      <path
         d="M 11.5,30 C 17,27 27,27 32.5,30"
         style="fill:none;stroke:#000000"
         id="path1235" />
      <path
         d="m 11.5,33.5 c 5.5,-3 15.5,-3 21,0"
         style="fill:none;stroke:#000000"
         id="path1237" />
      <path
         d="M 11.5,37 C 17,34 27,34 32.5,37"
         style="fill:none;stroke:#000000"
         id="path1239" />
    </g>
  </g>
</svg>
