<?xml version="1.0" encoding="UTF-8" standalone="no"?>
<!-- Created with Inkscape (http://www.inkscape.org/) -->

<svg
   width="40"
   height="40"
   viewBox="0 0 10.310533 10.310533"
   version="1.1"
   id="svg5696"
   inkscape:version="1.2.2 (732a01da63, 2022-12-09)"
   sodipodi:docname="white_bishop.svg"
   xmlns:inkscape="http://www.inkscape.org/namespaces/inkscape"
   xmlns:sodipodi="http://sodipodi.sourceforge.net/DTD/sodipodi-0.dtd"
   xmlns="http://www.w3.org/2000/svg"
   xmlns:svg="http://www.w3.org/2000/svg">
  <sodipodi:namedview
     id="namedview5698"
     pagecolor="#ffffff"
     bordercolor="#000000"
     borderopacity="0.25"
     inkscape:showpageshadow="2"
     inkscape:pageopacity="0.0"
     inkscape:pagecheckerboard="0"
     inkscape:deskcolor="#d1d1d1"
     inkscape:document-units="mm"
     showgrid="false"
     inkscape:zoom="10.917075"
     inkscape:cx="26.151693"
     inkscape:cy="21.113714"
     inkscape:window-width="1920"
     inkscape:window-height="991"
     inkscape:window-x="-9"
     inkscape:window-y="-9"
     inkscape:window-maximized="1"
     inkscape:current-layer="layer1" />
  <defs
     id="defs5693" />
  <g
     inkscape:label="Layer 1"
     inkscape:groupmode="layer"
     id="layer1">
    <g
       style="fill:none;fill-opacity:1;fill-rule:evenodd;stroke:#000000;stroke-width:1.5;stroke-linecap:round;stroke-linejoin:round;stroke-miterlimit:4;stroke-dasharray:none;stroke-opacity:1"
       transform="matrix(0.25776332,0,0,0.25776332,-0.64440779,-0.55629208)"
       id="g1273">
      <g
         style="fill:#ffffff;stroke:#000000;stroke-linecap:butt"
         id="g1269">
        <path
           d="m 9,36 c 3.39,-0.97 10.11,0.43 13.5,-2 3.39,2.43 10.11,1.03 13.5,2 0,0 1.65,0.54 3,2 -0.68,0.97 -1.65,0.99 -3,0.5 -3.39,-0.97 -10.11,0.46 -13.5,-1 C 19.11,38.96 12.39,37.53 9,38.5 7.646,38.99 6.677,38.97 6,38 7.354,36.06 9,36 9,36 Z"
           id="path1263" />
        <path
           d="m 15,32 c 2.5,2.5 12.5,2.5 15,0 0.5,-1.5 0,-2 0,-2 0,-2.5 -2.5,-4 -2.5,-4 5.5,-1.5 6,-11.5 -5,-15.5 -11,4 -10.5,14 -5,15.5 0,0 -2.5,1.5 -2.5,4 0,0 -0.5,0.5 0,2 z"
           id="path1265" />
        <path
           d="m 25,8 a 2.5,2.5 0 1 1 -5,0 2.5,2.5 0 1 1 5,0 z"
           id="path1267" />
      </g>
      <path
         d="m 17.5,26 h 10 M 15,30 H 30 M 22.5,15.5 v 5 M 20,18 h 5"
         style="fill:none;stroke:#000000;stroke-linejoin:miter"
         id="path1271" />
    </g>
  </g>
</svg>
